<?xml version="1.0" encoding="UTF-8"?>
<svg version="1.1" xmlns="http://www.w3.org/2000/svg" width="1427" height="409">
<path d="M0 0 C470.91 0 941.82 0 1427 0 C1427 134.97 1427 269.94 1427 409 C956.09 409 485.18 409 0 409 C0 274.03 0 139.06 0 0 Z " fill="#FDCC0A" transform="translate(0,0)"/>
<path d="M0 0 C63.03 0 126.06 0 191 0 C191 134.97 191 269.94 191 409 C-279.91 409 -750.82 409 -1236 409 C-1236 343.99 -1236 278.98 -1236 212 C-1235.67 212 -1235.34 212 -1235 212 C-1234.94054199 212.65669678 -1234.88108398 213.31339355 -1234.81982422 213.98999023 C-1232.09351164 242.97275154 -1225.42838635 268.3974457 -1212.60668945 294.46142578 C-1212.14093506 295.41001465 -1211.67518066 296.35860352 -1211.1953125 297.3359375 C-1210.77266113 298.18720215 -1210.35000977 299.0384668 -1209.91455078 299.91552734 C-1209 302 -1209 302 -1209 304 C-1151.91 304 -1094.82 304 -1036 304 C-1036 301.69 -1036 299.38 -1036 297 C-1034.02 287.1 -1032.04 277.2 -1030 267 C-1078.84 267 -1127.68 267 -1178 267 C-1177.3594962 259.31395441 -1176.64067641 252.21934447 -1175.07421875 244.7578125 C-1174.88535599 243.82814667 -1174.69649323 242.89848083 -1174.50190735 241.94064331 C-1173.90358098 239.00072629 -1173.29610096 236.06280549 -1172.6875 233.125 C-1171.89637031 229.27412192 -1171.10955943 225.42237492 -1170.32421875 221.5703125 C-1170.1306076 220.62561096 -1169.93699646 219.68090942 -1169.73751831 218.70758057 C-1168.11731623 210.7394764 -1166.65523536 202.74639398 -1165.27165222 194.73391724 C-1165.11860123 193.86378998 -1164.96555023 192.99366272 -1164.80786133 192.09716797 C-1164.60910149 190.94328079 -1164.60910149 190.94328079 -1164.40632629 189.76608276 C-1164 188 -1164 188 -1163 187 C-1161.3424238 186.90388581 -1159.68073014 186.87812245 -1158.02037048 186.87974548 C-1156.9419841 186.87837082 -1155.86359772 186.87699615 -1154.75253296 186.87557983 C-1153.5592337 186.87917511 -1152.36593445 186.88277039 -1151.13647461 186.88647461 C-1149.88787155 186.88632858 -1148.63926849 186.88618256 -1147.35282898 186.8860321 C-1143.91909006 186.88661109 -1140.48541062 186.89164045 -1137.05168223 186.89860606 C-1133.46687541 186.90484002 -1129.88206787 186.90544343 -1126.29725647 186.90663147 C-1119.50449955 186.90974466 -1112.71175865 186.91795788 -1105.91900879 186.92798096 C-1098.18757506 186.93914247 -1090.45614058 186.94465264 -1082.72470081 186.94967639 C-1066.81645792 186.96014051 -1050.90823102 186.97773971 -1035 187 C-1034.93302131 186.38647675 -1034.86604261 185.77295349 -1034.79703426 185.14083862 C-1034.66389246 183.93006149 -1034.66389246 183.93006149 -1034.52806091 182.69482422 C-1034.44045722 181.89567596 -1034.35285353 181.09652771 -1034.26259518 180.27316284 C-1033.70970331 175.4870382 -1032.87189404 170.74804382 -1032.0625 166 C-1031.89298828 164.95199219 -1031.72347656 163.90398437 -1031.54882812 162.82421875 C-1031.37931641 161.83035156 -1031.20980469 160.83648437 -1031.03515625 159.8125 C-1030.8844165 158.91144531 -1030.73367676 158.01039063 -1030.57836914 157.08203125 C-1030.29207642 156.05142578 -1030.29207642 156.05142578 -1030 155 C-1029.34 154.67 -1028.68 154.34 -1028 154 C-1027.10093849 159.4786415 -1026.20535997 164.95784438 -1025.3125 170.4375 C-1025.17750092 171.26600464 -1025.04250183 172.09450928 -1024.90341187 172.94812012 C-1022.96374435 184.87115518 -1021.09921671 196.80313907 -1019.3125 208.75 C-1017.9064552 218.14264124 -1016.44764946 227.51523855 -1014.74609375 236.859375 C-1011.96857016 252.11479948 -1009.56030507 267.43941827 -1007.32470703 282.78271484 C-1007.01250229 284.91462725 -1006.6927843 287.04528234 -1006.37109375 289.17578125 C-1006.18675781 290.41714844 -1006.00242187 291.65851563 -1005.8125 292.9375 C-1005.65394531 293.99839844 -1005.49539063 295.05929687 -1005.33203125 296.15234375 C-1005 299 -1005 299 -1005 304 C-990.15 304 -975.3 304 -960 304 C-959.34 302.02 -958.68 300.04 -958 298 C-957.03685701 296.01096252 -956.02715697 294.0440268 -954.98046875 292.09765625 C-954.37734863 290.97262695 -953.77422852 289.84759766 -953.15283203 288.68847656 C-952.49795873 287.47968908 -951.84284176 286.27103357 -951.1875 285.0625 C-950.50620245 283.79792978 -949.82505214 282.53328023 -949.14404297 281.26855469 C-944.56270776 272.78227684 -939.84396791 264.38031126 -935.05737305 256.00805664 C-929.98297116 247.0803985 -925.19612526 238.00794423 -920.40609741 228.92593384 C-915.208002 219.07645859 -909.87671245 209.32100964 -904.34448242 199.65380859 C-900.56218201 193.03917526 -896.96708808 186.34914381 -893.48828125 179.5703125 C-892 177 -892 177 -890 176 C-887.1533177 175.98335164 -884.33567251 176.02744583 -881.4921875 176.12109375 C-880.65156769 176.14470474 -879.81094788 176.16831573 -878.94485474 176.19264221 C-876.2547338 176.26933638 -873.5648966 176.35333583 -870.875 176.4375 C-869.05339939 176.49071494 -867.23178486 176.54345537 -865.41015625 176.59570312 C-860.93992382 176.72495929 -856.4699324 176.86076846 -852 177 C-851.78174561 175.34762329 -851.78174561 175.34762329 -851.55908203 173.66186523 C-850.26269144 165.17078991 -845.31858213 157.70512755 -839 152 C-827.45281251 143.55504199 -815.69488772 141.82271843 -801.6875 141.75 C-800.70587891 141.729375 -799.72425781 141.70875 -798.71289062 141.6875 C-790.84366756 141.64583634 -782.88537468 142.42336512 -776.5 147.4375 C-773.20005774 150.81994082 -771.71145287 153.44123745 -771.625 158.1875 C-771.81314492 164.92751506 -774.40518468 170.5161358 -778.75 175.625 C-789.01563042 185.02066174 -804.87950347 187.8979313 -818 191 C-820.03267969 191.48774978 -822.06522601 191.97605557 -824.09765625 192.46484375 C-827.30422399 193.23407561 -830.5109524 194.0026199 -833.71801758 194.76977539 C-836.81261537 195.51070197 -839.90656092 196.25425117 -843 197 C-843.89879883 197.2165625 -844.79759766 197.433125 -845.72363281 197.65625 C-867.66172001 203.00089248 -891.29445454 210.68470092 -904.8125 230.0625 C-913.32997572 244.63505324 -915.80253109 261.71997285 -911.8125 278.1875 C-910.41981848 282.40533547 -908.46597116 286.2233814 -906.18359375 290.02734375 C-905 292 -905 292 -904.09765625 294.12890625 C-902.7088952 296.49622491 -901.49332819 296.92302702 -899 298 C-897.51859293 298.95486643 -896.03961403 299.91350588 -894.5625 300.875 C-878.07012663 310.8681566 -857.23089873 310.96251895 -838.84765625 307.04296875 C-823.63767998 302.92006148 -808.33514316 295.79749695 -797.34375 284.26171875 C-796 283 -796 283 -794 283 C-793.90203125 283.64066406 -793.8040625 284.28132813 -793.703125 284.94140625 C-792.58474896 291.41063317 -791.50403685 297.17179416 -786.13671875 301.50390625 C-779.46449161 305.91436148 -773.50334457 306.18141763 -765.6875 306.1875 C-764.87087891 306.19974609 -764.05425781 306.21199219 -763.21289062 306.22460938 C-758.61789979 306.23559342 -754.88897482 305.69786096 -750.44458008 304.44750977 C-744.42744093 303.34600012 -738.10015549 303.80163757 -732 303.875 C-730.54297489 303.88504845 -729.08594309 303.89417101 -727.62890625 303.90234375 C-724.08579671 303.92421289 -720.54294188 303.95864023 -717 304 C-716.89042969 303.33621338 -716.78085937 302.67242676 -716.66796875 301.98852539 C-713.011932 279.99099941 -708.78243291 258.12022346 -704.44525146 236.24841309 C-703.81064936 233.04382468 -703.18095709 229.83827384 -702.55078125 226.6328125 C-701.57698312 221.69474493 -700.58542035 216.76063174 -699.57666016 211.82958984 C-699.17621032 209.86463914 -698.78037972 207.89874365 -698.38818359 205.93212891 C-694.41006193 186.04772187 -689.50899814 167.30236244 -672.08984375 154.93359375 C-657.22229714 145.31133176 -640.34222423 141.27063127 -622.77734375 144.61328125 C-615.89303242 147.02864241 -611.14741702 151.82046352 -607.8359375 158.265625 C-601.30659639 179.62328284 -611.95773966 208.16277493 -616.265625 229.40625 C-617.78265599 236.88768379 -619.2524216 244.37736663 -620.6875 251.875 C-620.88778809 252.92034912 -621.08807617 253.96569824 -621.29443359 255.04272461 C-622.22149504 259.89306394 -623.14117857 264.74474719 -624.0546875 269.59765625 C-624.22524658 270.50080566 -624.39580566 271.40395508 -624.5715332 272.33447266 C-624.87667324 273.95227625 -625.18019688 275.57038666 -625.48120117 277.18896484 C-627.17215639 286.16055536 -629.1177596 295.05935811 -631 304 C-618.13 304 -605.26 304 -592 304 C-592 301.69 -592 299.38 -592 297 C-591.77544285 295.33961405 -591.49857197 293.68516648 -591.16137695 292.04394531 C-590.97715683 291.12974823 -590.79293671 290.21555115 -590.60313416 289.27365112 C-590.29878197 287.81561569 -590.29878197 287.81561569 -589.98828125 286.328125 C-589.77953873 285.29978546 -589.5707962 284.27144592 -589.35572815 283.21194458 C-588.91020108 281.02015979 -588.46168991 278.8289798 -588.01043701 276.6383667 C-586.84660512 270.9881588 -585.70381358 265.33369162 -584.55859375 259.6796875 C-584.33431702 258.57545441 -584.11004028 257.47122131 -583.87896729 256.33352661 C-581.4303256 244.25058264 -579.16299224 232.13737597 -577 220 C-576.67 220 -576.34 220 -576 220 C-575.98582031 221.07894531 -575.97164062 222.15789062 -575.95703125 223.26953125 C-575.43050808 243.06323283 -571.05509925 262.31242129 -557 277 C-540.89138761 291.6635751 -521.28387777 295.13870545 -500.03271484 294.15234375 C-481.40988058 292.7566377 -465.29291793 284.46633254 -451.99609375 271.72265625 C-450 270 -450 270 -448 270 C-449.19713632 287.54423921 -453.12740303 304.83267667 -464 319 C-464.7425 320.03125 -465.485 321.0625 -466.25 322.125 C-476.67841621 333.02743512 -490.13668609 337.81125869 -504.98828125 338.16796875 C-533.42860104 338.41407927 -533.42860104 338.41407927 -543.8515625 329.3984375 C-548.92368075 323.92654639 -551 318.40926102 -551 311 C-563.54 311 -576.08 311 -589 311 C-587.56183794 322.97333461 -587.56183794 322.97333461 -583.3125 333.375 C-582.95655762 334.04781006 -582.60061523 334.72062012 -582.23388672 335.41381836 C-574.91654735 348.83219703 -562.27150797 358.13011456 -547.69140625 362.72802734 C-542.17092162 364.31807333 -536.60481995 365.73893164 -531 367 C-529.8406897 367.27046143 -529.8406897 367.27046143 -528.65795898 367.54638672 C-506.63031952 371.3056734 -480.13829775 368.46057394 -460 359 C-459.0615625 358.55914062 -458.123125 358.11828125 -457.15625 357.6640625 C-442.30845097 350.11504108 -432.3175575 338.91428485 -424.75 324.25 C-424.44489502 323.66790771 -424.13979004 323.08581543 -423.82543945 322.48608398 C-416.73225823 307.99882193 -414.09315247 291.74306874 -411 276.0625 C-410.56213025 273.8755782 -410.12348715 271.68881109 -409.68408203 269.50219727 C-408.63227557 264.25940881 -407.5894735 259.01488452 -406.54992676 253.76965332 C-405.78674101 249.92594155 -405.01540947 246.08389086 -404.2421875 242.2421875 C-403.15386256 236.8296093 -402.07296382 231.41564369 -401 226 C-400.67 226 -400.34 226 -400 226 C-399.96036133 226.55236328 -399.92072266 227.10472656 -399.87988281 227.67382812 C-398.11117399 251.26312701 -393.95686577 274.92581479 -375.28515625 291.39453125 C-355.94446211 306.71968048 -331.04930617 311.36520178 -306.88427734 308.64990234 C-287.54259944 305.88594992 -270.12154928 299.64220435 -255 287 C-253.74703125 285.98873047 -253.74703125 285.98873047 -252.46875 284.95703125 C-240.2929114 274.64139021 -230.0743581 260.2230743 -225 245 C-238.2 245 -251.4 245 -265 245 C-265.33 246.65 -265.66 248.3 -266 250 C-268.02898043 253.24407606 -270.5126867 256.09730037 -273 259 C-273.79083984 259.93585938 -273.79083984 259.93585938 -274.59765625 260.890625 C-284.31856207 271.49524953 -299.05310702 277.52380609 -313.26953125 278.4453125 C-326.72976856 278.91530293 -338.77331518 277.52213242 -349 268 C-349.68964844 267.36320312 -350.37929688 266.72640625 -351.08984375 266.0703125 C-360.70224279 256.2968118 -362.40606833 246.45501258 -362.375 233.25 C-362.2706287 222.2706287 -362.2706287 222.2706287 -361 221 C-359.15238732 220.90351752 -357.3010419 220.87812682 -355.45091248 220.87974548 C-354.24631378 220.87837082 -353.04171509 220.87699615 -351.8006134 220.87557983 C-350.45358252 220.87911944 -349.10655188 220.88275425 -347.75952148 220.88647461 C-346.35052492 220.88675648 -344.94152821 220.88659875 -343.53253174 220.8860321 C-339.6959237 220.88574411 -335.85934666 220.89164106 -332.02274585 220.89860606 C-328.01753059 220.90483937 -324.0123147 220.90544338 -320.00709534 220.90663147 C-312.41747996 220.90974485 -304.82787892 220.91795833 -297.23826987 220.92798096 C-288.59996076 220.93914188 -279.96165099 220.94465249 -271.32333648 220.94967639 C-253.54888285 220.96014094 -235.77444258 220.97774052 -218 221 C-219.03546025 229.52056291 -219.03546025 229.52056291 -219.75268555 233.36352539 C-219.96407417 234.50541824 -219.96407417 234.50541824 -220.17973328 235.67037964 C-220.40594109 236.87188156 -220.40594109 236.87188156 -220.63671875 238.09765625 C-220.79682938 238.95795441 -220.95694 239.81825256 -221.12190247 240.70462036 C-221.64129965 243.49104784 -222.16426673 246.27679053 -222.6875 249.0625 C-223.04696555 250.98541602 -223.40633985 252.9083491 -223.765625 254.83129883 C-226.77332965 270.90149056 -229.86895065 286.9533721 -233 303 C-212.21 303.33 -191.42 303.66 -170 304 C-169.67 300.04 -169.34 296.08 -169 292 C-168.56070728 289.37786993 -168.07042714 286.76336801 -167.51171875 284.1640625 C-167.29671219 283.14545135 -167.29671219 283.14545135 -167.07736206 282.10626221 C-166.77479639 280.67547275 -166.46912787 279.24533609 -166.16043091 277.81585693 C-165.35475871 274.0835728 -164.57275076 270.34632609 -163.7890625 266.609375 C-163.63403763 265.87270599 -163.47901276 265.13603699 -163.31929016 264.37704468 C-161.34609847 254.95477059 -159.64889328 245.48369678 -158 236 C-157.67 236 -157.34 236 -157 236 C-156.94054199 236.64324219 -156.88108398 237.28648437 -156.81982422 237.94921875 C-155.0895921 255.81872469 -153.00781726 274.48678391 -139.29296875 287.63671875 C-138 289 -138 289 -138 291 C-137.43152344 291.26167969 -136.86304688 291.52335937 -136.27734375 291.79296875 C-133.82354385 293.09352479 -131.77214092 294.63198052 -129.5625 296.3125 C-123.77673085 300.39907116 -117.74223191 302.90113889 -111 305 C-110.15896729 305.26184082 -109.31793457 305.52368164 -108.45141602 305.79345703 C-100.14835259 308.14505075 -92.28203988 308.45109529 -83.6875 308.375 C-82.38876953 308.38660156 -81.09003906 308.39820313 -79.75195312 308.41015625 C-66.98013499 308.37205038 -54.90206423 306.35518538 -43.0625 301.4375 C-41.80264282 300.91978027 -41.80264282 300.91978027 -40.51733398 300.39160156 C-11.82440816 288.1726022 8.40673307 264.87885344 20.1640625 236.15625 C20.43992187 235.4446875 20.71578125 234.733125 21 234 C22.08226542 237.24679625 21.92589232 238.32513416 21.24316406 241.5847168 C21.05256409 242.51386398 20.86196411 243.44301117 20.66558838 244.40031433 C20.45110046 245.40645279 20.23661255 246.41259125 20.015625 247.44921875 C19.79936462 248.49463333 19.58310425 249.54004791 19.36029053 250.61714172 C18.6641205 253.97548631 17.95743559 257.3315122 17.25 260.6875 C16.56074842 263.98899575 15.87369794 267.29094179 15.18737793 270.5930481 C14.74170757 272.73674846 14.2948603 274.8802045 13.84680176 277.02340698 C12.31135352 284.39570833 10.88852398 291.78068514 9.56933594 299.19458008 C9 302 9 302 8 304 C17.9 304 27.8 304 38 304 C38.33 300.04 38.66 296.08 39 292 C39.53844268 288.87366819 40.11166239 285.80883299 40.78515625 282.71484375 C41.05014168 281.45030365 41.05014168 281.45030365 41.32048035 280.16021729 C41.69899836 278.35509308 42.08047786 276.55058766 42.46472168 274.74667358 C43.50000037 269.88152969 44.5106859 265.01130901 45.51953125 260.140625 C45.72718109 259.13899826 45.93483093 258.13737152 46.14877319 257.10539246 C48.14618635 247.40716376 49.96388055 237.67868282 51.74581909 227.93890381 C53.01338079 221.0215969 54.30563281 214.10882973 55.59301758 207.19519043 C55.96603415 205.18320574 56.33386341 203.17026114 56.70117188 201.15722656 C59.97339794 183.41482945 64.65495793 168.77413118 78 156 C78.58910156 155.37996094 79.17820312 154.75992188 79.78515625 154.12109375 C93.04681098 141.09261097 111.46199021 137.63678333 129.28491211 137.546875 C138.50819324 137.69960508 145.22632754 139.23578036 151.97265625 145.96875 C156.99155462 152.13855415 158.37078899 158.39724495 158.3125 166.2734375 C158.30621582 167.45502945 158.30621582 167.45502945 158.29980469 168.66049194 C158.1404748 177.17161036 156.6754015 185.30253229 155 193.625 C154.68079122 195.27513242 154.36295621 196.92553109 154.04638672 198.57617188 C153.21769488 202.8711589 152.36780524 207.16161908 151.50964355 211.45080566 C151.01298202 213.93506504 150.51998675 216.42002111 150.02832031 218.90527344 C148.57797753 226.23166348 147.11536008 233.55546812 145.63667297 240.87619019 C142.647386 255.67898623 139.762936 270.50209125 136.88134766 285.32617188 C136.69617081 286.27671448 136.51099396 287.22725708 136.32020569 288.206604 C135.97295816 289.98909842 135.6265827 291.77176304 135.28123474 293.55462646 C135.12663284 294.34774231 134.97203094 295.14085815 134.81274414 295.95800781 C134.67921036 296.64566223 134.54567657 297.33331665 134.40809631 298.04180908 C133.9917353 300.03965697 133.49496005 302.02015979 133 304 C142.57 304 152.14 304 162 304 C162.66 299.71 163.32 295.42 164 291 C164.62727687 287.65100652 165.2704696 284.31373808 165.953125 280.9765625 C166.13374481 280.08053314 166.31436462 279.18450378 166.50045776 278.26132202 C166.88368547 276.36130081 167.26817556 274.46153381 167.65386963 272.56201172 C168.67424138 267.53484999 169.68407952 262.50556899 170.6953125 257.4765625 C170.89579193 256.48078186 171.09627136 255.48500122 171.30282593 254.45904541 C173.67618947 242.66054089 175.96702648 230.84709294 178.22460938 219.02587891 C178.94510125 215.26965027 179.68365053 211.51707659 180.42349243 207.76461792 C181.08566447 204.39764076 181.73995097 201.02915651 182.39300537 197.66040039 C182.70960606 196.03606284 183.02937334 194.41233866 183.3526001 192.78930664 C185.7549821 180.71139194 187.01939691 170.33460134 184 158.25 C183.77707275 157.34878418 183.55414551 156.44756836 183.32446289 155.51904297 C170.25154529 104.72919918 136.52208103 58.47348232 91.5 31.25 C73.62360614 20.7159068 54.87451887 12.86008067 35 7 C33.98679687 6.690625 32.97359375 6.38125 31.9296875 6.0625 C21.55460966 3.15868813 10.67232544 2.26554139 0 1 C0 0.67 0 0.34 0 0 Z " fill="#562B7A" transform="translate(1236,0)"/>
<path d="M0 0 C62.7 0 125.4 0 190 0 C189.34 3.3 188.68 6.6 188 10 C187.67501502 11.8728764 187.36027412 13.74760504 187.0625 15.625 C185.81631118 23.10213293 184.39695698 30.54956279 183 38 C134.82 38 86.64 38 37 38 C36.67 40.64 36.34 43.28 36 46 C35.61130197 48.22025092 35.19994738 50.43665894 34.765625 52.6484375 C34.52360352 53.88924072 34.28158203 55.13004395 34.03222656 56.40844727 C33.77159172 57.73065268 33.51084717 59.05283646 33.25 60.375 C32.84473411 62.44193632 32.44023074 64.50902082 32.03582764 66.5761261 C31.76144478 67.97844017 31.48674473 69.38069221 31.21173096 70.78288269 C30.31009144 75.38699581 29.42977678 79.99472984 28.5625 84.60546875 C28.34045898 85.78125488 28.11841797 86.95704102 27.88964844 88.16845703 C27.47314141 90.37848786 27.05957795 92.58907612 26.64941406 94.80029297 C26.36662598 96.29326904 26.36662598 96.29326904 26.078125 97.81640625 C25.83690918 99.10720093 25.83690918 99.10720093 25.59082031 100.42407227 C24.923224 103.334737 23.94433331 106.16700006 23 109 C64.91 109 106.82 109 150 109 C148.68 102.4 147.36 95.8 146 89 C145.01 82.07 145.01 82.07 144 75 C157.53 75 171.06 75 185 75 C186.2065625 84.466875 186.2065625 84.466875 187.4375 94.125 C188.53769104 102.74300606 189.63945104 111.36081105 190.74152374 119.97857666 C191.00822491 122.0643232 191.27484221 124.15008045 191.54144287 126.23583984 C192.60696342 134.5713903 193.67372558 142.90678025 194.74264431 151.24189568 C195.22690141 155.01812913 195.71072479 158.79441672 196.19332886 162.57086182 C198.68480841 182.06337213 201.27247909 201.53891324 204 221 C204.62788925 219.73806572 204.62788925 219.73806572 205.26846313 218.45063782 C206.42330926 216.12962355 207.57822967 213.80864625 208.73321533 211.48770142 C209.64099581 209.6629442 210.54848986 207.83804409 211.45477295 206.01254272 C215.56545113 197.7329296 219.8060875 189.53091052 224.12617493 181.35884094 C228.40716157 173.25190385 232.58850122 165.09534194 236.75756836 156.93041992 C239.03502427 152.47052638 241.31659476 148.0127377 243.59765625 143.5546875 C244.05500153 142.66066223 244.5123468 141.76663696 244.98355103 140.84552002 C249.30967068 132.39047065 253.65003793 123.94280527 258 115.5 C258.34369629 114.83290009 258.68739258 114.16580017 259.04150391 113.47848511 C265.66061641 100.63471302 272.32422033 87.81442764 279 75 C292.53 75 306.06 75 320 75 C318.97518605 79.09925581 317.3501486 82.5231758 315.4375 86.25 C314.9434668 87.22453125 314.9434668 87.22453125 314.43945312 88.21875 C313.62992435 89.81434294 312.81544958 91.40742483 312 93 C312.47566406 92.5153125 312.95132812 92.030625 313.44140625 91.53125 C324.66519589 80.7828695 338.11970831 75.52318884 353 72 C354.00675781 71.75378906 355.01351563 71.50757812 356.05078125 71.25390625 C377.22950235 67.09840617 405.47276058 67.69545176 424.26171875 79.41015625 C426.27729501 80.84985358 428.1399312 82.36539408 430 84 C430.61617188 84.52335937 431.23234375 85.04671875 431.8671875 85.5859375 C439.3672285 92.44219816 443.75775858 102.14668464 444.37109375 112.29296875 C444.57885513 122.27317468 443.75389539 131.74091281 441.89453125 141.546875 C441.67452454 142.74150864 441.45451782 143.93614227 441.22784424 145.16697693 C440.49648249 149.11352669 439.75045968 153.05705104 439 157 C438.7344271 158.4002751 438.46887355 159.80055388 438.20333862 161.20083618 C436.39120663 170.74111393 434.54464668 180.27456816 432.68865967 189.80639648 C432.09307307 192.86960271 431.50058911 195.93340614 430.90803909 198.99720097 C430.33301615 201.96823824 429.75608216 204.93890186 429.17855072 207.90945244 C428.90525456 209.31635606 428.63254578 210.72337392 428.36045074 212.13051033 C427.98476271 214.07184149 427.6062211 216.01261978 427.22753906 217.95336914 C427.01389709 219.05250137 426.80025513 220.15163361 426.58013916 221.28407288 C426 224 426 224 425 227 C424.85502877 229.1634168 424.77929825 231.33192931 424.75 233.5 C424.72421875 234.6446875 424.6984375 235.789375 424.671875 236.96875 C424.72743092 240.00577519 424.72743092 240.00577519 426.515625 241.90625 C427.00546875 242.2671875 427.4953125 242.628125 428 243 C427.94328125 241.94941406 427.8865625 240.89882813 427.828125 239.81640625 C427.83349745 233.6931539 429.38298505 227.8754712 430.75 221.9375 C432.70452404 213.37648525 434.41621073 204.82294524 435.890625 196.16796875 C438.04425604 183.52646301 440.5048097 170.95287305 443 158.375 C443.85522907 154.04968866 444.70906678 149.7241035 445.5625 145.3984375 C445.77029587 144.34603882 445.97809174 143.29364014 446.19218445 142.20935059 C448.01182361 132.97737163 449.77692527 123.73550446 451.52789307 114.49029541 C452.75423566 108.02151659 453.99129747 101.55481528 455.23754883 95.08984375 C455.54434812 93.49442083 455.84962326 91.89870425 456.15356445 90.30273438 C456.60265337 87.94590065 457.05663716 85.59005789 457.51171875 83.234375 C457.6471257 82.51795837 457.78253265 81.80154175 457.92204285 81.06341553 C458.88600868 76.11399132 458.88600868 76.11399132 460 75 C462.8843382 74.91134792 465.74462158 74.88478704 468.62890625 74.90234375 C469.92525246 74.90446617 469.92525246 74.90446617 471.24778748 74.90663147 C474.01939292 74.91224761 476.7909188 74.92480281 479.5625 74.9375 C481.4368478 74.94251292 483.31119685 74.94707619 485.18554688 74.95117188 C489.79039544 74.96222228 494.39518421 74.9794977 499 75 C498.86287598 75.72807861 498.72575195 76.45615723 498.58447266 77.20629883 C497.24500948 84.41262329 497.24500948 84.41262329 496.375 91.6875 C496.30023437 92.51636719 496.22546875 93.34523438 496.1484375 94.19921875 C496.09945312 94.79347656 496.05046875 95.38773437 496 96 C496.58394531 95.36384766 496.58394531 95.36384766 497.1796875 94.71484375 C511.19075344 80.02582301 531.48137718 70.53772181 551.8359375 69.76171875 C569.9857375 69.39764035 586.84018266 71.2899643 600.8125 84.125 C613.77631077 97.97165093 613.31286275 114.2537294 613 132 C613.47308594 130.98421875 613.94617188 129.9684375 614.43359375 128.921875 C618.78973963 119.77207128 623.49199757 111.82297552 630 104 C631.09828125 102.67355469 631.09828125 102.67355469 632.21875 101.3203125 C646.59546569 84.66559608 667.88903354 72.33889714 690 70 C708.45366105 68.70078527 727.6941089 69.83633661 742.56494141 82.31298828 C747.50337169 86.80912459 751.88871436 91.73983316 756 97 C756.17390259 96.10692139 756.17390259 96.10692139 756.35131836 95.19580078 C756.87703798 92.50493604 757.40721295 89.8149682 757.9375 87.125 C758.21110352 85.71927734 758.21110352 85.71927734 758.49023438 84.28515625 C758.66748047 83.38925781 758.84472656 82.49335937 759.02734375 81.5703125 C759.18968506 80.74289551 759.35202637 79.91547852 759.51928711 79.06298828 C760 77 760 77 761 75 C773.87 75 786.74 75 800 75 C798.43019982 84.41880111 796.79789307 93.81570445 795.078125 103.20678711 C794.77773942 104.85130105 794.47921501 106.49615612 794.18261719 108.14135742 C792.13093266 119.520018 789.76124707 130.77195059 787 142 C788.31002064 139.40485381 789.50783039 136.80829524 790.625 134.125 C802.94661767 106.49196037 822.96962643 86.69959469 851.18701172 75.67529297 C874.73553187 66.90405586 904.33203688 66.29899625 927.4230957 76.68505859 C942.49767559 83.96097549 954.24375176 96.19087536 960 112 C963.16133586 121.83645382 965.06194038 131.08480711 965.5625 141.375 C965.62727539 142.62216797 965.62727539 142.62216797 965.69335938 143.89453125 C965.79861805 145.92953228 965.89973072 147.96474703 966 150 C966.15855469 149.11183594 966.31710937 148.22367188 966.48046875 147.30859375 C967.97164977 139.14417171 969.63322004 131.03854517 971.4375 122.9375 C973.58146503 113.26270696 975.37433793 103.55788721 977.0078125 93.78515625 C979.4774011 79.17310262 982.42270275 64.64211595 985.27905273 50.10205078 C985.93356919 46.77001111 986.58698414 43.43775687 987.24023438 40.10546875 C988.28907302 34.75733747 989.3426515 29.4101527 990.39764404 24.06323242 C990.99347082 21.03320364 991.58337374 18.00206746 992.17236328 14.97070312 C992.53275207 13.13148581 992.89325972 11.29229179 993.25390625 9.453125 C993.41680649 8.60675476 993.57970673 7.76038452 993.74754333 6.8883667 C994.88656024 1.11343976 994.88656024 1.11343976 996 0 C998.14558827 -0.08775605 1000.29404421 -0.10695219 1002.44140625 -0.09765625 C1003.74658203 -0.09443359 1005.05175781 -0.09121094 1006.39648438 -0.08789062 C1007.7851569 -0.07953401 1009.17382877 -0.07106905 1010.5625 -0.0625 C1011.95507656 -0.05748666 1013.34765481 -0.05292347 1014.74023438 -0.04882812 C1018.1601987 -0.03699434 1021.58007844 -0.0205088 1025 0 C1024.9278125 0.84304687 1024.855625 1.68609375 1024.78125 2.5546875 C1024.64203125 4.19824219 1024.64203125 4.19824219 1024.5 5.875 C1024.36078125 7.51082031 1024.36078125 7.51082031 1024.21875 9.1796875 C1024.09437042 10.78329564 1024 12.39157551 1024 14 C1024.7115625 12.9171875 1024.7115625 12.9171875 1025.4375 11.8125 C1029.36952099 7.49686721 1033.74705007 4.52340698 1039.59765625 3.58203125 C1044.75652287 3.41862824 1048.67555119 3.98294269 1053 7 C1056.69179061 10.76201489 1059.13965781 13.84509898 1059.25 19.1875 C1059.16487963 25.07972108 1057.49993025 29.21629916 1053.6875 33.75 C1047.76177835 38.71106929 1042.85958509 39.72168002 1035.203125 39.546875 C1030.07857745 38.67195225 1027.06738895 36.0948887 1024 32 C1022.98327074 30.00845246 1021.98148396 28.00915137 1021 26 C1020.82460693 26.90202148 1020.64921387 27.80404297 1020.46850586 28.73339844 C1020.07973801 30.73277592 1019.69096741 32.73215287 1019.30215454 34.73152161 C1018.5271898 38.71670094 1017.75250629 42.70193465 1016.97827148 46.68725586 C1015.41018525 54.75741323 1013.83927684 62.82698414 1012.2578125 70.89453125 C1011.69210167 73.78373577 1011.12703542 76.67306559 1010.5625 79.5625 C1010.42103546 80.28646973 1010.27957092 81.01043945 1010.13381958 81.75634766 C1007.45087147 95.5079479 1004.89893386 109.28279799 1002.35626221 123.06091309 C1000.32465479 134.05682841 998.22465635 145.02548049 995.8671875 155.95703125 C993.4867863 167.14012415 991.50831416 178.40305279 989.49780273 189.6574707 C988.12041605 197.31064031 986.61153994 204.84770219 984.64306641 212.37597656 C983.66138957 216.38169508 983.07172128 220.41912283 982.5 224.5 C981.57277947 230.73911489 980.40308279 236.7706925 978.76171875 242.8671875 C977.14817156 249.5034175 976.1397344 256.27013971 975 263 C965.1 263 955.2 263 945 263 C948.67970908 241.92530252 952.75540448 220.96659264 957 200 C958.32 193.4 959.64 186.8 961 180 C913.81 180.33 866.62 180.66 818 181 C817.17531013 206.63340219 817.17531013 206.63340219 829.6796875 225.91015625 C838.43332922 233.79432851 848.46247146 236.58679602 860.125 236.5 C861.0337085 236.49427979 861.94241699 236.48855957 862.87866211 236.48266602 C878.29788999 236.08070774 892.71386142 230.28772042 903.9375 219.5625 C908.31170907 214.91837604 911.97117457 210.08647628 914 204 C927.2 204 940.4 204 954 204 C951.38560665 217.07196674 942.48728323 228.07245053 934 238 C933.41734375 238.68578125 932.8346875 239.3715625 932.234375 240.078125 C914.66365238 259.06870399 888.59648864 267.82043761 863.40625 269.4375 C839.8926772 270.3059051 816.70605115 263.64207606 799.1953125 247.41796875 C786.26214342 233.17307255 780.89639273 215.34598105 778.91796875 196.5703125 C778.82849976 195.74281494 778.73903076 194.91531738 778.64685059 194.06274414 C778.42873745 192.04209732 778.21401762 190.0210847 778 188 C777.79431396 189.09948975 777.58862793 190.19897949 777.37670898 191.33178711 C758.57293492 291.67215999 758.57293492 291.67215999 732.85546875 311.08984375 C723.23967756 317.52229504 713.28892281 322.29222825 702 325 C700.85660156 325.29777344 699.71320312 325.59554688 698.53515625 325.90234375 C677.14312668 330.6151056 652.75351406 329.98637994 632 323 C630.81535156 322.60425781 629.63070312 322.20851563 628.41015625 321.80078125 C621.5454065 319.19511962 615.76746686 315.50857815 610 311 C609.28972656 310.46632813 608.57945312 309.93265625 607.84765625 309.3828125 C602.14191277 304.80507589 598.55463537 299.34240777 595 293 C594.36191406 291.90365234 594.36191406 291.90365234 593.7109375 290.78515625 C589.9951165 283.60747325 590.63854673 278.93965428 590 270 C602.54 270 615.08 270 628 270 C628.99 273.63 629.98 277.26 631 281 C635.56257802 288.78976736 640.82979763 292.04234443 649.3515625 294.74609375 C655.67527476 296.20155133 662.10420028 296.19741075 668.5625 296.25 C669.43688721 296.25942627 670.31127441 296.26885254 671.2121582 296.27856445 C686.30087023 296.20359476 701.16551491 291.89181041 712 281 C724.5309594 266.23749988 727.5044805 247.43092101 731 229 C730.57332031 229.40089844 730.14664063 229.80179688 729.70703125 230.21484375 C710.52449597 247.65710779 689.73210567 254.98793925 664 254 C645.84821224 252.89495104 630.71970807 246.54468895 618.125 233.125 C608.30729663 221.0379978 603.5585336 205.56197357 602.44921875 190.21484375 C602.32099731 188.46675415 602.32099731 188.46675415 602.19018555 186.68334961 C602.12742432 185.79784424 602.06466309 184.91233887 602 184 C596.81327537 210.3013463 591.81325318 236.62738362 587 263 C574.13 263 561.26 263 548 263 C549.12669177 251.73308232 549.12669177 251.73308232 550.015625 246.92578125 C550.31025635 245.32597412 550.31025635 245.32597412 550.61083984 243.69384766 C550.8217627 242.57800293 551.03268555 241.4621582 551.25 240.3125 C551.47252441 239.12188965 551.69504883 237.9312793 551.92431641 236.70458984 C553.46322899 228.57188689 555.1752943 220.49057864 556.98120117 212.41381836 C559.90175059 199.16700037 562.30077976 185.81245615 564.78781128 172.47900391 C566.11237842 165.38082301 567.46899325 158.28889165 568.84594727 151.20068359 C570.26702072 143.80720607 571.21714586 136.59547725 571.3125 129.0625 C571.34150391 128.30259766 571.37050781 127.54269531 571.40039062 126.75976562 C571.48066636 119.52877422 569.30627975 114.3586952 564.25 109.1875 C557.5661551 104.68875824 551.6327161 103.48473815 543.75 103.625 C542.4966687 103.6413147 542.4966687 103.6413147 541.21801758 103.65795898 C524.97848068 104.07379407 510.13103234 110.35232466 498.6953125 121.921875 C486.89204649 134.81788154 483.9989771 151.86012926 480.99371338 168.49041748 C480.24859495 172.61087496 479.48048394 176.7270653 478.71484375 180.84375 C478.56499023 181.65234467 478.41513672 182.46093933 478.26074219 183.29403687 C477.1358688 189.34046491 475.91774304 195.3621367 474.625 201.375 C472.88018591 209.51088824 471.28385011 217.67015174 469.7265625 225.84375 C469.52402863 226.90663239 469.32149475 227.96951477 469.11282349 229.06460571 C468.08120485 234.4865907 467.05493432 239.90954771 466.03369141 245.33349609 C465.65270167 247.3447327 465.27168089 249.35596343 464.890625 251.3671875 C464.71479889 252.30872681 464.53897278 253.25026611 464.3578186 254.22033691 C464.19365448 255.08461304 464.02949036 255.94888916 463.86035156 256.83935547 C463.71776917 257.59747528 463.57518677 258.35559509 463.42828369 259.13668823 C463 261 463 261 462 263 C461.1028125 263.01981934 460.205625 263.03963867 459.28125 263.06005859 C455.91885603 263.13864761 452.5568671 263.22535471 449.19482422 263.31738281 C447.74601152 263.35541616 446.29711261 263.39031137 444.84814453 263.421875 C435.62640824 263.46337416 435.62640824 263.46337416 426.58984375 265.01953125 C422.16335071 266.22850813 418.12587311 266.33091555 413.5625 266.3125 C412.76779297 266.32861328 411.97308594 266.34472656 411.15429688 266.36132812 C403.89551823 266.36723437 397.7714925 264.8302309 391.6875 260.8125 C387.33679128 256.25943273 384.77266002 251.90145682 384.75 245.5 C384.8325 244.345 384.915 243.19 385 242 C384.00033203 242.85271484 384.00033203 242.85271484 382.98046875 243.72265625 C361.28192805 261.90087427 337.34697526 270.79033528 309 269 C296.49727093 267.60091536 282.43502887 262.60384024 274.0859375 252.73828125 C270.29429074 247.36245331 267.54687293 242.41357314 266 236 C265.72929688 234.92105469 265.72929688 234.92105469 265.453125 233.8203125 C262.75638975 217.03546035 265.31412903 200.45805178 275.13671875 186.38671875 C294.21350852 161.95083081 329.24955611 155.75520888 357.8046875 149.4921875 C383.96801941 144.35103959 383.96801941 144.35103959 404 128 C406.29850312 123.19403893 406.7348504 118.24758558 406 113 C403.74051197 108.01029727 400.87682002 106.0135315 396.09765625 103.76171875 C382.67793461 98.88863547 362.31132753 100.54807669 349.3671875 106.13671875 C336.14769568 113.05186546 331.71742961 121.84771117 327 136 C314.13 136 301.26 136 288 136 C285.958125 139.815625 283.91625 143.63125 281.8125 147.5625 C277.20642672 156.14390596 272.52314041 164.67047811 267.6875 173.125 C262.0458874 183.00109344 256.70682806 193.02225491 251.40234375 203.08157349 C246.30425601 212.74390066 241.06051689 222.30065816 235.63012695 231.78149414 C229.78591214 242.03324805 224.40696769 252.51178557 219 263 C204.15 263 189.3 263 174 263 C168.96084481 233.3098424 168.96084481 233.3098424 167.375 221.1875 C166.49956367 214.49868512 165.49281183 207.8768631 164.26513672 201.24291992 C162.83358289 193.35657579 161.68462404 185.42625545 160.5 177.5 C159.05514937 167.84971347 157.57979761 158.21705803 155.82421875 148.6171875 C153.73642458 137.10566356 151.91473851 125.54018072 150 114 C148.02 124.56 146.04 135.12 144 146 C101.76 146.33 59.52 146.66 16 147 C10.86679195 173.30769126 5.85584406 199.63970366 1 226 C49.84 226 98.68 226 149 226 C147.75675643 238.43243566 145.27510392 250.71443883 143 263 C85.91 263 28.82 263 -30 263 C-45.39164786 231.03273138 -45.39164786 231.03273138 -42.8125 217.9375 C-42.68157959 217.26468994 -42.55065918 216.59187988 -42.41577148 215.89868164 C-41.03221422 208.90729349 -39.45274234 201.95745358 -37.91186523 194.99951172 C-35.77796215 185.2314762 -34.0945837 175.40056757 -32.43212891 165.54345703 C-30.57348942 154.60373601 -28.35582138 143.76303255 -25.88891602 132.9453125 C-24.58616738 127.11670311 -23.51877644 121.27539423 -22.55859375 115.3828125 C-21.07839205 106.29920385 -19.351162 97.27721969 -17.5625 88.25 C-16.86321401 84.70078969 -16.16592714 81.15118759 -15.46875 77.6015625 C-15.28043106 76.64385956 -15.09211212 75.68615662 -14.89808655 74.69943237 C-13.33362465 66.73128762 -11.79159802 58.75888447 -10.25543404 50.7852478 C-9.84480466 48.65391163 -9.43390702 46.52262735 -9.02293396 44.39135742 C-7.38345312 35.88873836 -7.38345312 35.88873836 -5.74783325 27.38537598 C-5.22603994 24.66927422 -4.70323239 21.95337191 -4.17919922 19.23770142 C-3.69736821 16.74059467 -3.21707508 14.24319054 -2.73852539 11.74545288 C-2.52389648 10.63529816 -2.30926758 9.52514343 -2.08813477 8.38134766 C-1.9013063 7.41025055 -1.71447784 6.43915344 -1.52198792 5.43862915 C-1 3 -1 3 0 0 Z " fill="#FEFEFD" transform="translate(57,41)"/>
<path d="M0 0 C1.29873047 -0.01224609 2.59746094 -0.02449219 3.93554688 -0.03710938 C15.01915806 -0.05380994 25.36885481 0.68820031 35.5 5.4375 C36.17998047 5.7476001 36.85996094 6.0577002 37.56054688 6.37719727 C53.80219105 13.96089717 65.1371532 26.21261307 71.3125 43.1875 C73.09638147 48.66031372 73.87763602 53.92999018 74.4375 59.625 C74.52386719 60.45193359 74.61023437 61.27886719 74.69921875 62.13085938 C74.90921616 64.14916778 75.11164451 66.16826133 75.3125 68.1875 C75.39701416 67.64899414 75.48152832 67.11048828 75.56860352 66.55566406 C77.77886384 52.6080095 80.30429479 38.73565859 83 24.875 C83.2341008 23.66644348 83.2341008 23.66644348 83.47293091 22.43347168 C83.92074302 20.12570014 84.37176862 17.81858501 84.82421875 15.51171875 C84.95949982 14.81582138 85.09478088 14.11992401 85.23416138 13.40293884 C85.79072047 10.58771156 86.40364003 7.91407992 87.3125 5.1875 C97.2125 5.1875 107.1125 5.1875 117.3125 5.1875 C116.6525 9.1475 115.9925 13.1075 115.3125 17.1875 C114.96191403 19.85195336 114.62054303 22.5177937 114.3125 25.1875 C115.17875 24.218125 116.045 23.24875 116.9375 22.25 C133.17809825 6.07502033 155.3479255 0.01334756 177.625 0 C178.68912109 -0.01224609 179.75324219 -0.02449219 180.84960938 -0.03710938 C192.23544211 -0.05794983 206.70330197 0.72440401 215.3125 9.1875 C219.28180261 15.23987852 221.24011117 22.3163683 223.3125 29.1875 C223.81779048 30.76601603 224.32424207 32.344161 224.83203125 33.921875 C229.53937584 48.91873955 231.58203874 61.53780779 228.37109375 77.0546875 C228.06665848 78.58483238 228.06665848 78.58483238 227.756073 80.14588928 C227.09610753 83.45324362 226.42305582 86.75778728 225.75 90.0625 C225.28764942 92.36902054 224.82631414 94.67574482 224.3659668 96.98266602 C223.44617574 101.58804452 222.52218764 106.19254696 221.59472656 110.79638672 C220.04168474 118.51878192 218.53382468 126.24961883 217.03915405 133.98348999 C216.62737991 136.11269396 216.21400486 138.24158056 215.80004883 140.37036133 C214.48154705 147.15130466 213.16793169 153.93317273 211.85972595 160.71611023 C211.21021716 164.08235651 210.55921656 167.44831346 209.90805054 170.8142395 C209.5972554 172.42304122 209.2872028 174.03198659 208.97793579 175.64108276 C208.55219373 177.85612565 208.12401552 180.07068483 207.6953125 182.28515625 C207.33010498 184.18019897 207.33010498 184.18019897 206.95751953 186.11352539 C206.3125 189.1875 206.3125 189.1875 205.3125 192.1875 C195.7425 192.1875 186.1725 192.1875 176.3125 192.1875 C176.95110555 187.0786556 177.63105858 182.11544679 178.546875 177.06640625 C178.66487457 176.41392914 178.78287415 175.76145203 178.90444946 175.08920288 C179.28778809 172.97563736 179.67480773 170.86277098 180.0625 168.75 C180.26374481 167.64847092 180.26374481 167.64847092 180.46905518 166.52468872 C182.70559381 154.29259376 185.07804128 142.09257254 187.55712891 129.90722656 C190.04745322 117.64394883 192.50695707 105.37448468 194.93768311 93.09925842 C195.8458374 88.51683777 196.77266835 83.93885706 197.71484375 79.36328125 C199.39718292 70.99890561 200.65133226 62.85959277 200.75 54.3125 C200.7603125 53.60432129 200.770625 52.89614258 200.78125 52.16650391 C200.65320795 44.75962702 198.45881855 38.56212103 193.3125 33.1875 C183.37904505 25.08250401 170.41512467 26.07929499 158.3125 27.1875 C141.42294937 29.68624046 126.20726878 37.96200954 115.3125 51.1875 C106.77815178 63.62789706 103.3167798 76.89932256 100.625 91.625 C100.24711561 93.64116635 99.86640341 95.65678805 99.48570251 97.67242432 C99.21048215 99.13071821 98.9361404 100.58917816 98.66261292 102.04779053 C96.98196564 110.99653829 95.21375401 119.9280564 93.4553833 128.86178589 C89.30717296 149.95161185 85.27510755 171.06208738 81.3125 192.1875 C71.4125 192.1875 61.5125 192.1875 51.3125 192.1875 C55.26867081 169.43951786 59.72039914 146.81425114 64.3125 124.1875 C63.99434326 124.97906494 63.67618652 125.77062988 63.34838867 126.58618164 C51.55999767 155.47402291 30.06267416 177.98091754 1.3125 190.1875 C-23.49251264 200.07179268 -52.37181471 201.0245267 -77.1171875 190.765625 C-91.51039077 184.08947585 -101.43580536 173.75979542 -107.6875 159.1875 C-108.04585937 158.3934375 -108.40421875 157.599375 -108.7734375 156.78125 C-112.393841 147.96162041 -113.40417881 138.56935568 -114.6875 129.1875 C-118.79610025 150.16860946 -122.83211534 171.15812912 -126.6875 192.1875 C-136.5875 192.1875 -146.4875 192.1875 -156.6875 192.1875 C-156.1023572 186.9212148 -155.54867316 181.99166304 -154.54463196 176.84701538 C-154.31633194 175.66780518 -154.08803192 174.48859497 -153.85281372 173.27365112 C-153.60401459 172.00820465 -153.35521545 170.74275818 -153.09887695 169.43896484 C-152.83229466 168.06929477 -152.56603276 166.69956231 -152.30006409 165.32977295 C-151.5798321 161.625228 -150.85515885 157.92156445 -150.12968087 154.2180438 C-149.36377616 150.30396829 -148.60206331 146.38907709 -147.83988953 142.47427368 C-146.39081914 135.03462823 -144.93809822 127.59570061 -143.48401946 120.15703261 C-141.69265419 110.99200603 -139.90585445 101.82609054 -138.11914062 92.66015625 C-136.28427357 83.24782541 -134.44902571 73.83557023 -132.610672 64.42391968 C-132.32670853 62.96983214 -132.04274848 61.51574393 -131.75879192 60.06165504 C-131.34373375 57.93623393 -130.92859111 55.81082952 -130.51316226 53.68548083 C-128.98812044 45.88314618 -127.47201634 38.07921478 -125.97323608 30.27178955 C-125.69475248 28.82350065 -125.41624782 27.3752158 -125.13772106 25.9269352 C-124.61248379 23.1955292 -124.08989096 20.46363525 -123.56879902 17.73143578 C-123.33587241 16.51952883 -123.1029458 15.30762188 -122.86296082 14.05899048 C-122.6593201 12.99371439 -122.45567938 11.9284383 -122.24586773 10.83088112 C-121.6875 8.1875 -121.6875 8.1875 -120.6875 5.1875 C-110.7875 5.1875 -100.8875 5.1875 -90.6875 5.1875 C-92.9375 19.8125 -92.9375 19.8125 -93.92431641 24.80395508 C-94.25443222 26.48422539 -94.25443222 26.48422539 -94.59121704 28.19844055 C-94.82150604 29.35627548 -95.05179504 30.51411041 -95.2890625 31.70703125 C-95.6510524 33.54390755 -95.6510524 33.54390755 -96.02035522 35.41789246 C-96.78187304 39.27909976 -97.54711929 43.13955676 -98.3125 47 C-98.83388681 49.63856272 -99.35445375 52.27728697 -99.875 54.91601562 C-101.14299475 61.34040731 -102.41404063 67.76418941 -103.6875 74.1875 C-103.34632141 73.36040527 -103.00514282 72.53331055 -102.65362549 71.68115234 C-102.20493103 70.59785645 -101.75623657 69.51456055 -101.29394531 68.3984375 C-100.62748993 66.78654541 -100.62748993 66.78654541 -99.9475708 65.14208984 C-87.91312007 36.9239406 -63.60027723 16.45389525 -35.6875 5.1875 C-23.82583438 0.88492786 -12.51888939 0.00612171 0 0 Z " fill="#FEFDFD" transform="translate(1192.6875,111.8125)"/>
<path d="M0 0 C8.38508622 6.15419172 13.64922408 13.57538411 17.1875 23.3125 C17.55617188 24.30765625 17.92484375 25.3028125 18.3046875 26.328125 C19.83624718 31.893447 19.47531716 37.71450293 19.4375 43.4375 C19.44523437 44.58476562 19.45296875 45.73203125 19.4609375 46.9140625 C19.43645601 57.78384414 18.38178546 68.3908107 14.5625 78.625 C14.30452637 79.33084229 14.04655273 80.03668457 13.78076172 80.76391602 C9.23512079 92.83064837 3.77276941 103.60426286 -4.8125 113.3125 C-5.27914063 113.9209375 -5.74578125 114.529375 -6.2265625 115.15625 C-15.95913228 127.6776848 -31.50992874 135.25518584 -46.8125 138.3125 C-51.15601199 138.72954193 -55.45144148 138.77815237 -59.8125 138.75 C-60.91078125 138.76998047 -62.0090625 138.78996094 -63.140625 138.81054688 C-75.9236159 138.80297401 -86.54367467 134.32697096 -95.9375 125.75 C-106.20779103 115.01562902 -109.28400928 100.98569927 -109.09155273 86.63012695 C-109.02486527 84.18898315 -108.92892003 81.7517527 -108.8125 79.3125 C-108.7805957 78.62494629 -108.74869141 77.93739258 -108.71582031 77.22900391 C-107.41478779 54.9168522 -97.6940023 32.87079129 -82.8125 16.3125 C-82.22339844 15.63058594 -81.63429688 14.94867188 -81.02734375 14.24609375 C-61.45871248 -6.98441703 -25.39776231 -15.29831656 0 0 Z " fill="#562B7A" transform="translate(1217.8125,144.6875)"/>
<path d="M0 0 C7.302701 5.77605876 10.83560349 13.44468164 12.8125 22.43359375 C14.78179437 47.12436786 9.03729223 72.30316195 -6.27734375 92.140625 C-16.04177476 103.58680336 -29.64371147 111.87332667 -44.77050781 113.75488281 C-47.37582273 113.90463635 -49.95302455 113.95243647 -52.5625 113.93359375 C-53.93559326 113.92610107 -53.93559326 113.92610107 -55.33642578 113.91845703 C-65.0229208 113.6697335 -73.49475905 111.00073435 -80.66015625 104.23828125 C-91.98782178 90.85367389 -92.2662687 75.15737771 -91.1875 58.43359375 C-88.79468359 38.88856713 -80.33862312 19.14452489 -64.80859375 6.49609375 C-46.72727286 -6.6333787 -19.87439435 -13.50336874 0 0 Z " fill="#FECD0B" transform="translate(790.1875,149.56640625)"/>
<path d="M0 0 C63.03 0 126.06 0 191 0 C191 134.97 191 269.94 191 409 C190.67 409 190.34 409 190 409 C189.99945523 407.8765279 189.99891047 406.7530558 189.99834919 405.59553909 C189.98389261 378.1382674 189.94062453 350.6811531 189.86790943 323.22397232 C189.83339647 309.94534087 189.807922 296.66686614 189.80444336 283.38818359 C189.8013843 271.80164688 189.78063527 260.21529306 189.73947543 248.62882686 C189.71831868 242.50552131 189.7054545 236.38247463 189.71384621 230.25913239 C189.94811691 193.82517868 189.94811691 193.82517868 184 158 C183.75649622 157.04992317 183.51299244 156.09984634 183.26210976 155.12097931 C169.83992573 103.79223652 135.47618258 57.16401878 89.6472168 30.15820312 C72.26520601 20.18525449 54.20003107 12.66120527 35 7 C33.98679687 6.690625 32.97359375 6.38125 31.9296875 6.0625 C21.55460966 3.15868813 10.67232544 2.26554139 0 1 C0 0.67 0 0.34 0 0 Z " fill="#010001" transform="translate(1236,0)"/>
<path d="M0 0 C0.33 0 0.66 0 1 0 C1.05945801 0.65669678 1.11891602 1.31339355 1.18017578 1.98999023 C4.83221156 40.81388807 16.09453481 77.03331417 39 109 C39.41459473 109.58136719 39.82918945 110.16273438 40.25634766 110.76171875 C46.11271815 118.87661024 52.65594653 126.28925908 59.57128906 133.50830078 C60.88665218 134.88165496 62.1900085 136.2664824 63.4921875 137.65234375 C97.3050556 172.74012327 146.90198164 193.00863388 195 196 C195 196.33 195 196.66 195 197 C130.65 197 66.3 197 0 197 C0 131.99 0 66.98 0 0 Z " fill="#000000" transform="translate(0,212)"/>
<path d="M0 0 C-2.61880912 20.08682312 -6.5412246 40.89549288 -21 56 C-21.59167969 56.63164062 -22.18335938 57.26328125 -22.79296875 57.9140625 C-30.88509184 65.74737568 -42.19381795 70.36928152 -53 73 C-53.91120605 73.25475098 -53.91120605 73.25475098 -54.84082031 73.51464844 C-64.42520159 75.66907516 -77.76270088 75.81786409 -86.1875 70.4921875 C-91.28663106 66.29419598 -94.47645943 61.7503627 -95.40625 55.08984375 C-95.69421734 45.40694192 -93.5574953 37.86954002 -86.83203125 30.68359375 C-72.67470447 18.51244984 -53.37866222 14.60740023 -35.59179688 10.87695312 C-25.23259964 8.6812163 -9.8022113 0 0 0 Z " fill="#572D7B" transform="translate(456,205)"/>
<path d="M0 0 C0.7425 0.36222656 1.485 0.72445312 2.25 1.09765625 C9.41950024 5.10334294 14.96610252 11.13027961 17.4453125 19.01171875 C17.71988281 19.99591797 17.71988281 19.99591797 18 21 C18.5878125 22.8871875 18.5878125 22.8871875 19.1875 24.8125 C20.93591789 32.21413573 20.06318882 39.55767829 19 47 C-15.65 47 -50.3 47 -86 47 C-84.18285776 32.46286209 -77.30522605 22.86029289 -67 13 C-66.21882812 12.24847656 -65.43765625 11.49695313 -64.6328125 10.72265625 C-48.01316947 -3.8545054 -20.2789572 -9.9119903 0 0 Z " fill="#FECD0D" transform="translate(967,146)"/>
<path d="M0 0 C1.22244667 0.00333092 1.22244667 0.00333092 2.46958923 0.00672913 C3.85090782 0.00684242 3.85090782 0.00684242 5.26013184 0.00695801 C6.2611644 0.01211929 7.26219696 0.01728058 8.29356384 0.02259827 C9.31316696 0.02401321 10.33277008 0.02542816 11.38327026 0.02688599 C14.65417867 0.03250355 17.92501972 0.04505902 21.19590759 0.05775452 C23.40749515 0.06276725 25.61908377 0.06733055 27.83067322 0.07142639 C33.26494116 0.08247868 38.69916957 0.09923389 44.13340759 0.12025452 C43.19609653 1.37668017 42.25783938 2.63240006 41.31919861 3.88783264 C40.79681107 4.58718933 40.27442352 5.28654602 39.73620605 6.00709534 C37.25784774 9.27460884 34.66927078 12.44792814 32.07090759 15.62025452 C30.93157588 17.01738276 29.79225324 18.4145184 28.65293884 19.81166077 C27.4797646 21.247861 26.3065875 22.68405891 25.13340759 24.12025452 C22.83996088 26.93130831 20.54878408 29.744199 18.25840759 32.55775452 C17.49258362 33.49554749 17.49258362 33.49554749 16.71128845 34.45228577 C16.21379089 35.06330139 15.71629333 35.67431702 15.20372009 36.30384827 C14.69300964 36.90898254 14.18229919 37.51411682 13.65611267 38.1375885 C12.05068612 40.12670646 12.05068612 40.12670646 10.77281189 42.57362366 C9.09370457 45.36390897 7.75027298 47.16083485 5.13340759 49.12025452 C-0.38992735 50.22864016 -5.70530967 49.97414779 -11.30409241 49.68275452 C-12.81373864 49.63755747 -14.32351488 49.59650194 -15.83338928 49.55970764 C-19.51384661 49.46104727 -23.18938559 49.30606828 -26.86659241 49.12025452 C-25.60295926 45.86226371 -24.22649776 42.73206126 -22.63587952 39.62123108 C-22.19880173 38.76394409 -21.76172394 37.9066571 -21.31140137 37.02339172 C-20.84363785 36.1117627 -20.37587433 35.20013367 -19.89393616 34.26087952 C-19.16926903 32.84340424 -19.16926903 32.84340424 -18.42996216 31.39729309 C-17.41146308 29.40644585 -16.39186188 27.4161621 -15.37123108 25.42640686 C-13.80340554 22.36891503 -12.24003833 19.30917326 -10.67713928 16.24916077 C-9.68717007 14.31543124 -8.69694464 12.38183287 -7.70643616 10.44837952 C-7.23664841 9.52865356 -6.76686066 8.60892761 -6.28283691 7.66133118 C-5.84891129 6.81665283 -5.41498566 5.97197449 -4.96791077 5.10169983 C-4.58533615 4.35511108 -4.20276154 3.60852234 -3.80859375 2.83930969 C-2.33515804 0.15044168 -2.33515804 0.15044168 0 0 Z " fill="#FEFDF9" transform="translate(962.8665924072266,37.87974548339844)"/>
<path d="M0 0 C1.12758089 3.38274266 0.81750262 4.76778223 0.0625 8.1875 C-0.13214844 9.08855469 -0.32679687 9.98960937 -0.52734375 10.91796875 C-0.68332031 11.60503906 -0.83929687 12.29210937 -1 13 C-1.99 12.67 -2.98 12.34 -4 12 C-3.33501617 7.61110675 -1.81242323 4.0188515 0 0 Z " fill="#8B6FA3" transform="translate(1257,234)"/>
<path d="M0 0 C0.99 0.33 1.98 0.66 3 1 C1.68 4.96 0.36 8.92 -1 13 C-1.33 13 -1.66 13 -2 13 C-1.85851011 11.3954444 -1.71164314 9.79136233 -1.5625 8.1875 C-1.48128906 7.29417969 -1.40007813 6.40085938 -1.31640625 5.48046875 C-1 3 -1 3 0 0 Z " fill="#FED957" transform="translate(845,175)"/>
</svg>
